inDegrees=no
num_controls=7
num_derivatives=13
num_iterations=85
num_multipliers=7
num_parameters=0
num_slacks=7
num_states=26
objective=0.447969
objective_accelerations=0.054090
objective_balance=0.000972
objective_effort=0.043802
objective_height=0.342958
objective_ligament=0.006148
solver_duration=960.110381
status=Solve_Succeeded
success=true
DataType=double
version=3
OpenSimVersion=4.5
endheader
time	/jointset/ground_pelvis/pelvis_tilt/value	/jointset/ground_pelvis/pelvis_tx/value	/jointset/ground_pelvis/pelvis_ty/value	/jointset/hip_r/hip_flexion_r/value	/jointset/hip_r/hip_adduction_r/value	/jointset/hip_r/hip_rotation_r/value	/jointset/back/lumbar_extension/value	/jointset/patellofemoral_r/patellar_flexion_r/value	/jointset/knee_r/knee_flexion_r/value	/jointset/knee_r/knee_adduction_r/value	/jointset/knee_r/knee_rotation_r/value	/jointset/ankle_r/ankle_angle_r/value	/jointset/subtalar_r/subtalar_angle_r/value	/jointset/ground_pelvis/pelvis_tilt/speed	/jointset/ground_pelvis/pelvis_tx/speed	/jointset/ground_pelvis/pelvis_ty/speed	/jointset/hip_r/hip_flexion_r/speed	/jointset/hip_r/hip_adduction_r/speed	/jointset/hip_r/hip_rotation_r/speed	/jointset/back/lumbar_extension/speed	/jointset/patellofemoral_r/patellar_flexion_r/speed	/jointset/knee_r/knee_flexion_r/speed	/jointset/knee_r/knee_adduction_r/speed	/jointset/knee_r/knee_rotation_r/speed	/jointset/ankle_r/ankle_angle_r/speed	/jointset/subtalar_r/subtalar_angle_r/speed	/forceset/tau_hip_flexion_r	/forceset/tau_hip_adduction_r	/forceset/tau_hip_rotation_r	/forceset/tau_knee_flexion_r	/forceset/tau_ankle_angle_r	/forceset/tau_subtalar_angle_r	/forceset/tau_lumbar_extension	lambda_cid13_p0	lambda_cid14_p0	lambda_cid14_p1	lambda_cid14_p2	lambda_cid14_p3	lambda_cid14_p4	lambda_cid14_p5	/jointset/ground_pelvis/pelvis_tilt/accel	/jointset/ground_pelvis/pelvis_tx/accel	/jointset/ground_pelvis/pelvis_ty/accel	/jointset/hip_r/hip_flexion_r/accel	/jointset/hip_r/hip_adduction_r/accel	/jointset/hip_r/hip_rotation_r/accel	/jointset/back/lumbar_extension/accel	/jointset/patellofemoral_r/patellar_flexion_r/accel	/jointset/knee_r/knee_flexion_r/accel	/jointset/knee_r/knee_adduction_r/accel	/jointset/knee_r/knee_rotation_r/accel	/jointset/ankle_r/ankle_angle_r/accel	/jointset/subtalar_r/subtalar_angle_r/accel	gamma_cid13_p0	gamma_cid14_p0	gamma_cid14_p1	gamma_cid14_p2	gamma_cid14_p3	gamma_cid14_p4	gamma_cid14_p5
0	-0.007330038729933049	0.1318101792082753	0.933250548630201	0.1934211968871041	-0.2297141819939091	-0.2375034598321786	-0.2903787966825928	0.2311786273363406	0.2311786273363406	0.1361735446273111	0.1702154229133348	0.089344008118978	0.06190916523716368	0	0	0	0	0	0	0	0	0	0	0	0	0	0.1171025236168404	-0.05698074725480574	0.00390693703955551	-0.2456508449509506	0.1187371145774341	-0.09721648709650337	-0.03951204268487141	-29.84966229527184	-8.181652392181601	-38.73090649116503	0.9737212619702383	6.421519908621922	-600.7954368874484	37.68075438193754	-2.252420790138341	-2.212339721960675	-1.002262467164478	11.87977243374047	0.05287665830403609	3.644501826926092	-7.175166743502928	11.98360175760991	11.98360175760991	-3.101564566814615	-0.4994304550827644	3.257361246121937	0.9542142236873338	3.483964722416311e-07	1.031439775626286e-07	-2.590088218827412e-06	1.483001595410631e-06	1.915408498964489e-07	4.710478000161946e-07	-2.003596922563704e-06
0.01	-0.007438797153335059	0.1317017148536886	0.9332014873934924	0.1939985176903455	-0.2297172982945757	-0.2373288433792597	-0.2907334340704099	0.23176306447913	0.23176306447913	0.1360343516822398	0.1701976304883724	0.08950027883567732	0.06194794991888072	-0.02200214311402629	-0.02150635083329267	-0.009821168910090808	0.1148162539370105	-0.001359469559153559	0.03387495343399331	-0.06984339094780549	0.1160262000110446	0.1160262000110721	-0.02608529657235464	-0.002315550913540194	0.0307418627543568	0.006713175673756495	0.1119295668437002	-0.06914699554972578	0.004250938798735935	-0.2422151652090651	0.1123588354217891	-0.08598246171509383	-0.03426611230845093	-29.85462671139839	-9.727935792056872	-33.8978036113493	-0.05370807330419518	6.115651977238384	-603.2080780279572	47.41601306644961	-2.211679678561098	-2.091766443238769	-0.9732881286257509	11.18537033625605	-0.3409003502041865	3.102063991678385	-6.726312278081002	11.28287516154697	11.28287516154972	-2.099288282941247	0.08912843284428573	2.905807112031635	0.3730742388416405	1.511037611877502e-07	2.839294110429373e-08	-1.16630016947688e-06	5.277202166149647e-07	9.636041458226971e-08	7.859522541544374e-08	-7.982217433684791e-07
0.02	-0.007775090729182609	0.1313837902549241	0.9330539656625439	0.195704564725472	-0.2297561176082696	-0.2368468630139921	-0.2917539827692371	0.2334819128297688	0.2334819128297689	0.135686850555346	0.1701940317227413	0.08994860984431047	0.06202250735725968	-0.04550703048910558	-0.0418920488355744	-0.01969209884795818	0.2257452463770095	-0.007140602605472472	0.06147278246973737	-0.1331822622020767	0.2268822415698987	0.2268822415698987	-0.04166163636452359	0.002838731866276885	0.05841205838676623	0.007154551332387345	0.1067566100705601	-0.08131324384464748	0.00459494055791636	-0.2387794854671797	0.1059805562661442	-0.0747484363336843	-0.02902018193203046	-29.87080368929137	-11.18270680738345	-29.06754497885149	-1.059131386641667	5.846796614293543	-604.1649720757291	56.87851473454793	-2.552969642348939	-1.988209155758486	-1.012214672719791	11.10232013433817	-0.8314560391290342	2.389076947276244	-5.874262804796071	10.94957006717181	10.94957006716081	-0.9997732107774685	0.9945362835886923	2.643027821732462	-0.3001457793377936	-4.618894986613075e-08	-4.635809535404114e-08	2.574878798736525e-07	-4.275611621807012e-07	1.179979268090551e-09	-3.138573491853071e-07	4.071534358267459e-07
0.03	-0.008348876942812949	0.1308664070657287	0.9328076889835184	0.1985023268146001	-0.2298639685593588	-0.2361090597490632	-0.2933844189984824	0.2362884555906042	0.2362884555906042	0.1352124949522613	0.1702628208537841	0.09066370298242757	0.06208498694214409	-0.06895019240867489	-0.06151737362714577	-0.02954178912203124	0.3333011429809112	-0.01402301106967912	0.08626612425983386	-0.1927706352333005	0.3340407246020919	0.334040724602065	-0.0539243234098111	0.01037175733248555	0.08465207780506748	0.005854607035936842	0.100746418440368	-0.07778467753999593	0.005279350011230312	-0.2324531402600065	0.09784544392702947	-0.07303857360983311	-0.0243237756786913	-29.89933185586027	-13.67247248806508	-28.67191905006991	-1.223834076803862	6.89139921473433	-604.1161432253922	56.63853284033215	-2.194983170949454	-1.939611982973428	-0.968193386622531	10.50631841891197	-0.5556768623709811	2.551119868353362	-5.980972290232631	10.54115955691135	10.5411595569141	-1.446739154646699	0.550502704095136	2.62131326248178	0.03205963064814193	4.476066768583765e-08	-4.481889834029831e-08	-3.93852804679056e-07	3.318139330652831e-08	6.857693677934498e-08	-3.18048527455508e-07	-1.583637506887201e-07
0.04	-0.009148093516476689	0.1301547870601943	0.9324635459653778	0.2023604666688664	-0.2300284523175509	-0.2351179916515378	-0.2956067085056294	0.2401550176088952	0.2401550176088953	0.1345940679380753	0.1703905036446807	0.09164256116684825	0.06214986276115339	-0.09059310249578571	-0.08073941210339589	-0.03926536667096634	0.437820799404645	-0.0184671640260635	0.1121257489890091	-0.2515529177824076	0.4388860930610144	0.4388860930610145	-0.07047591858479067	0.01461746383703274	0.1111650676474801	0.007633798157365886	0.09473622681017597	-0.07425611123534438	0.005963759464544261	-0.2261267950528332	0.08971033158791474	-0.07132871088598189	-0.01962736942535203	-29.93809527745691	-16.07930982711511	-28.27580146507302	-1.372588984940977	7.953169854704863	-602.7624063346573	56.18198320606567	-2.192919275857281	-1.907551892694247	-0.9869921276925319	10.49507209830457	-0.3438049375643486	2.602333535091817	-5.713044708372692	10.48694715251755	10.48694715251755	-1.857554836715865	0.337072491257529	2.697621906554589	0.3156813042387818	1.41653426033803e-07	-4.170670682197654e-08	-1.087979648693688e-06	5.231203185727868e-07	1.393260054828764e-07	-3.142343161106461e-07	-7.603941818580153e-07
0.05	-0.01015660743321472	0.1292538521144935	0.9320223118599995	0.2072467055808376	-0.2302308358621472	-0.2338666062473527	-0.2984089674203573	0.2450559735196061	0.2450559735196061	0.1338015342866206	0.17055038755073	0.09288553706219202	0.06224030190284835	-0.1109156667010774	-0.09928891523449372	-0.0489957733912934	0.5386133593083162	-0.02217684164704441	0.1379898633809715	-0.3084693530369886	0.5406268964460349	0.5406268964460347	-0.0874315826607801	0.01741500938634984	0.1372255855597768	0.01018828856213654	0.08886783427657259	-0.07014425897217204	0.006436352712132731	-0.2230812307929695	0.08714093848949202	-0.07177265904638117	-0.01459560876957807	-29.98441489132324	-16.82666787902652	-28.6373242633526	-1.271708767489926	7.477633008894601	-601.8731369283373	54.21073146633513	-1.922815463415565	-1.804821816068706	-0.9682756082332314	9.749304539386014	-0.4096952570175214	2.554354432566073	-5.616516115061179	9.915888922568078	9.915888922568076	-1.5248118264509	0.2595640233730686	2.529601984498483	0.1853626343284182	9.969579445261854e-08	-7.322642956844114e-08	-8.159070471085989e-07	2.632649945269334e-07	1.305842789593459e-07	-4.869502490338438e-07	-4.755763940837166e-07
